<mxfile host="app.diagrams.net" modified="2022-01-23T07:31:39.632Z" agent="5.0 (Windows NT 10.0; Win64; x64) AppleWebKit/537.36 (KHTML, like Gecko) Chrome/97.0.4692.99 Safari/537.36 Edg/97.0.1072.69" etag="Amlkg4DW-eLCrlLyvKAi" version="16.4.3" type="github">
  <diagram id="JN3Vz_J68iwBXqduEP1-" name="Page-1">
    <mxGraphModel dx="1422" dy="754" grid="1" gridSize="10" guides="1" tooltips="1" connect="1" arrows="1" fold="1" page="1" pageScale="1" pageWidth="827" pageHeight="1169" math="0" shadow="0">
      <root>
        <mxCell id="0" />
        <mxCell id="1" parent="0" />
        <mxCell id="4yR7eveLyW7QboJW2kPM-3" value="" style="edgeStyle=orthogonalEdgeStyle;rounded=0;orthogonalLoop=1;jettySize=auto;html=1;" edge="1" parent="1" source="4yR7eveLyW7QboJW2kPM-1" target="4yR7eveLyW7QboJW2kPM-2">
          <mxGeometry relative="1" as="geometry" />
        </mxCell>
        <mxCell id="4yR7eveLyW7QboJW2kPM-1" value="1.location info&lt;br&gt;2.company info&lt;br&gt;3.container entry date&lt;br&gt;label: container departure date" style="shape=note;whiteSpace=wrap;html=1;backgroundOutline=1;darkOpacity=0.05;" vertex="1" parent="1">
          <mxGeometry x="40" y="70" width="170" height="70" as="geometry" />
        </mxCell>
        <mxCell id="4yR7eveLyW7QboJW2kPM-5" value="" style="edgeStyle=orthogonalEdgeStyle;rounded=0;orthogonalLoop=1;jettySize=auto;html=1;entryX=0.5;entryY=0;entryDx=0;entryDy=0;entryPerimeter=0;" edge="1" parent="1" source="4yR7eveLyW7QboJW2kPM-2" target="4yR7eveLyW7QboJW2kPM-7">
          <mxGeometry relative="1" as="geometry">
            <mxPoint x="320" y="190" as="targetPoint" />
            <Array as="points">
              <mxPoint x="320" y="180" />
              <mxPoint x="104" y="180" />
            </Array>
          </mxGeometry>
        </mxCell>
        <mxCell id="4yR7eveLyW7QboJW2kPM-2" value="machine learning model" style="whiteSpace=wrap;html=1;" vertex="1" parent="1">
          <mxGeometry x="260" y="75" width="120" height="60" as="geometry" />
        </mxCell>
        <mxCell id="4yR7eveLyW7QboJW2kPM-4" value="DRL Agent" style="rounded=1;whiteSpace=wrap;html=1;" vertex="1" parent="1">
          <mxGeometry x="340" y="300" width="120" height="60" as="geometry" />
        </mxCell>
        <mxCell id="4yR7eveLyW7QboJW2kPM-7" value="" style="strokeWidth=2;html=1;shape=mxgraph.flowchart.multi-document;whiteSpace=wrap;" vertex="1" parent="1">
          <mxGeometry x="60" y="260" width="88" height="60" as="geometry" />
        </mxCell>
        <mxCell id="4yR7eveLyW7QboJW2kPM-13" value="" style="shape=table;html=1;whiteSpace=wrap;startSize=0;container=1;collapsible=0;childLayout=tableLayout;rounded=1;swimlaneLine=0;" vertex="1" parent="1">
          <mxGeometry x="110" y="510" width="200" height="160" as="geometry" />
        </mxCell>
        <mxCell id="4yR7eveLyW7QboJW2kPM-14" value="" style="shape=tableRow;horizontal=0;startSize=0;swimlaneHead=0;swimlaneBody=0;top=0;left=0;bottom=0;right=0;collapsible=0;dropTarget=0;fillColor=none;points=[[0,0.5],[1,0.5]];portConstraint=eastwest;" vertex="1" parent="4yR7eveLyW7QboJW2kPM-13">
          <mxGeometry width="200" height="53" as="geometry" />
        </mxCell>
        <mxCell id="4yR7eveLyW7QboJW2kPM-15" value="" style="shape=partialRectangle;html=1;whiteSpace=wrap;connectable=0;fillColor=none;top=0;left=0;bottom=0;right=0;overflow=hidden;" vertex="1" parent="4yR7eveLyW7QboJW2kPM-14">
          <mxGeometry width="67" height="53" as="geometry">
            <mxRectangle width="67" height="53" as="alternateBounds" />
          </mxGeometry>
        </mxCell>
        <mxCell id="4yR7eveLyW7QboJW2kPM-16" value="" style="shape=partialRectangle;html=1;whiteSpace=wrap;connectable=0;fillColor=none;top=0;left=0;bottom=0;right=0;overflow=hidden;" vertex="1" parent="4yR7eveLyW7QboJW2kPM-14">
          <mxGeometry x="67" width="66" height="53" as="geometry">
            <mxRectangle width="66" height="53" as="alternateBounds" />
          </mxGeometry>
        </mxCell>
        <mxCell id="4yR7eveLyW7QboJW2kPM-17" value="" style="shape=partialRectangle;html=1;whiteSpace=wrap;connectable=0;fillColor=none;top=0;left=0;bottom=0;right=0;overflow=hidden;" vertex="1" parent="4yR7eveLyW7QboJW2kPM-14">
          <mxGeometry x="133" width="67" height="53" as="geometry">
            <mxRectangle width="67" height="53" as="alternateBounds" />
          </mxGeometry>
        </mxCell>
        <mxCell id="4yR7eveLyW7QboJW2kPM-18" value="" style="shape=tableRow;horizontal=0;startSize=0;swimlaneHead=0;swimlaneBody=0;top=0;left=0;bottom=0;right=0;collapsible=0;dropTarget=0;fillColor=none;points=[[0,0.5],[1,0.5]];portConstraint=eastwest;" vertex="1" parent="4yR7eveLyW7QboJW2kPM-13">
          <mxGeometry y="53" width="200" height="54" as="geometry" />
        </mxCell>
        <mxCell id="4yR7eveLyW7QboJW2kPM-19" value="" style="shape=partialRectangle;html=1;whiteSpace=wrap;connectable=0;fillColor=none;top=0;left=0;bottom=0;right=0;overflow=hidden;" vertex="1" parent="4yR7eveLyW7QboJW2kPM-18">
          <mxGeometry width="67" height="54" as="geometry">
            <mxRectangle width="67" height="54" as="alternateBounds" />
          </mxGeometry>
        </mxCell>
        <mxCell id="4yR7eveLyW7QboJW2kPM-20" value="" style="shape=partialRectangle;html=1;whiteSpace=wrap;connectable=0;fillColor=none;top=0;left=0;bottom=0;right=0;overflow=hidden;" vertex="1" parent="4yR7eveLyW7QboJW2kPM-18">
          <mxGeometry x="67" width="66" height="54" as="geometry">
            <mxRectangle width="66" height="54" as="alternateBounds" />
          </mxGeometry>
        </mxCell>
        <mxCell id="4yR7eveLyW7QboJW2kPM-21" value="" style="shape=partialRectangle;html=1;whiteSpace=wrap;connectable=0;fillColor=none;top=0;left=0;bottom=0;right=0;overflow=hidden;" vertex="1" parent="4yR7eveLyW7QboJW2kPM-18">
          <mxGeometry x="133" width="67" height="54" as="geometry">
            <mxRectangle width="67" height="54" as="alternateBounds" />
          </mxGeometry>
        </mxCell>
        <mxCell id="4yR7eveLyW7QboJW2kPM-22" value="" style="shape=tableRow;horizontal=0;startSize=0;swimlaneHead=0;swimlaneBody=0;top=0;left=0;bottom=0;right=0;collapsible=0;dropTarget=0;fillColor=none;points=[[0,0.5],[1,0.5]];portConstraint=eastwest;" vertex="1" parent="4yR7eveLyW7QboJW2kPM-13">
          <mxGeometry y="107" width="200" height="53" as="geometry" />
        </mxCell>
        <mxCell id="4yR7eveLyW7QboJW2kPM-23" value="" style="shape=partialRectangle;html=1;whiteSpace=wrap;connectable=0;fillColor=none;top=0;left=0;bottom=0;right=0;overflow=hidden;" vertex="1" parent="4yR7eveLyW7QboJW2kPM-22">
          <mxGeometry width="67" height="53" as="geometry">
            <mxRectangle width="67" height="53" as="alternateBounds" />
          </mxGeometry>
        </mxCell>
        <mxCell id="4yR7eveLyW7QboJW2kPM-24" value="" style="shape=partialRectangle;html=1;whiteSpace=wrap;connectable=0;fillColor=none;top=0;left=0;bottom=0;right=0;overflow=hidden;" vertex="1" parent="4yR7eveLyW7QboJW2kPM-22">
          <mxGeometry x="67" width="66" height="53" as="geometry">
            <mxRectangle width="66" height="53" as="alternateBounds" />
          </mxGeometry>
        </mxCell>
        <mxCell id="4yR7eveLyW7QboJW2kPM-25" value="" style="shape=partialRectangle;html=1;whiteSpace=wrap;connectable=0;fillColor=none;top=0;left=0;bottom=0;right=0;overflow=hidden;pointerEvents=1;" vertex="1" parent="4yR7eveLyW7QboJW2kPM-22">
          <mxGeometry x="133" width="67" height="53" as="geometry">
            <mxRectangle width="67" height="53" as="alternateBounds" />
          </mxGeometry>
        </mxCell>
      </root>
    </mxGraphModel>
  </diagram>
</mxfile>
